<mxfile host="app.diagrams.net" modified="2022-09-26T10:34:21.792Z" agent="5.0 (Windows NT 10.0; Win64; x64) AppleWebKit/537.36 (KHTML, like Gecko) Chrome/105.0.0.0 Safari/537.36" etag="kQaH9Ew56uqhLA3ayvxL" version="20.3.6" type="github">
  <diagram id="kQaC4ZWw2jD6uv-FxZUa" name="Page-1">
    <mxGraphModel dx="1038" dy="489" grid="1" gridSize="10" guides="1" tooltips="1" connect="1" arrows="1" fold="1" page="1" pageScale="1" pageWidth="850" pageHeight="1100" math="0" shadow="0">
      <root>
        <mxCell id="0" />
        <mxCell id="1" parent="0" />
        <mxCell id="lXMdROhuDWXLb9PD8Kn7-1" value="Administrador&amp;nbsp;" style="rounded=1;whiteSpace=wrap;html=1;" parent="1" vertex="1">
          <mxGeometry x="330" y="700" width="120" height="60" as="geometry" />
        </mxCell>
        <mxCell id="lXMdROhuDWXLb9PD8Kn7-2" value="" style="endArrow=classic;html=1;rounded=0;" parent="1" target="lXMdROhuDWXLb9PD8Kn7-3" edge="1">
          <mxGeometry width="50" height="50" relative="1" as="geometry">
            <mxPoint x="389.5" y="760" as="sourcePoint" />
            <mxPoint x="390" y="800" as="targetPoint" />
          </mxGeometry>
        </mxCell>
        <mxCell id="lXMdROhuDWXLb9PD8Kn7-3" value="Validación - LOGIN" style="rhombus;whiteSpace=wrap;html=1;" parent="1" vertex="1">
          <mxGeometry x="320" y="800" width="140" height="90" as="geometry" />
        </mxCell>
        <mxCell id="lXMdROhuDWXLb9PD8Kn7-4" value="" style="endArrow=classic;html=1;rounded=0;exitX=0;exitY=0.5;exitDx=0;exitDy=0;" parent="1" source="lXMdROhuDWXLb9PD8Kn7-3" edge="1">
          <mxGeometry width="50" height="50" relative="1" as="geometry">
            <mxPoint x="240" y="900" as="sourcePoint" />
            <mxPoint x="280" y="845" as="targetPoint" />
          </mxGeometry>
        </mxCell>
        <mxCell id="lXMdROhuDWXLb9PD8Kn7-5" value="NO" style="text;html=1;resizable=0;autosize=1;align=center;verticalAlign=middle;points=[];fillColor=none;strokeColor=none;rounded=0;" parent="1" vertex="1">
          <mxGeometry x="290" y="820" width="40" height="30" as="geometry" />
        </mxCell>
        <mxCell id="lXMdROhuDWXLb9PD8Kn7-6" value="" style="endArrow=classic;html=1;rounded=0;exitX=1;exitY=0.5;exitDx=0;exitDy=0;" parent="1" source="lXMdROhuDWXLb9PD8Kn7-3" edge="1">
          <mxGeometry width="50" height="50" relative="1" as="geometry">
            <mxPoint x="480" y="870" as="sourcePoint" />
            <mxPoint x="510" y="845" as="targetPoint" />
          </mxGeometry>
        </mxCell>
        <mxCell id="lXMdROhuDWXLb9PD8Kn7-7" value="SI" style="text;html=1;resizable=0;autosize=1;align=center;verticalAlign=middle;points=[];fillColor=none;strokeColor=none;rounded=0;" parent="1" vertex="1">
          <mxGeometry x="460" y="820" width="30" height="30" as="geometry" />
        </mxCell>
        <mxCell id="lXMdROhuDWXLb9PD8Kn7-9" value="La compañía debe registrar al Administrador en la BD" style="rounded=0;whiteSpace=wrap;html=1;" parent="1" vertex="1">
          <mxGeometry x="160" y="815" width="120" height="60" as="geometry" />
        </mxCell>
        <mxCell id="lXMdROhuDWXLb9PD8Kn7-10" value="Acceso al sitio Web DIARIO NEWS" style="rounded=0;whiteSpace=wrap;html=1;" parent="1" vertex="1">
          <mxGeometry x="510" y="815" width="120" height="60" as="geometry" />
        </mxCell>
        <mxCell id="lXMdROhuDWXLb9PD8Kn7-11" value="" style="endArrow=classic;html=1;rounded=0;exitX=0.5;exitY=1;exitDx=0;exitDy=0;" parent="1" source="lXMdROhuDWXLb9PD8Kn7-10" target="lXMdROhuDWXLb9PD8Kn7-12" edge="1">
          <mxGeometry width="50" height="50" relative="1" as="geometry">
            <mxPoint x="545" y="960" as="sourcePoint" />
            <mxPoint x="570" y="920" as="targetPoint" />
          </mxGeometry>
        </mxCell>
        <mxCell id="lXMdROhuDWXLb9PD8Kn7-12" value="Acceso a Base de datos para CRUD" style="rhombus;whiteSpace=wrap;html=1;" parent="1" vertex="1">
          <mxGeometry x="510" y="920" width="130" height="110" as="geometry" />
        </mxCell>
        <mxCell id="lXMdROhuDWXLb9PD8Kn7-13" value="" style="endArrow=classic;html=1;rounded=0;exitX=1.053;exitY=0.807;exitDx=0;exitDy=0;exitPerimeter=0;entryX=1;entryY=0.5;entryDx=0;entryDy=0;" parent="1" source="lXMdROhuDWXLb9PD8Kn7-14" target="lXMdROhuDWXLb9PD8Kn7-22" edge="1">
          <mxGeometry width="50" height="50" relative="1" as="geometry">
            <mxPoint x="400" y="1000" as="sourcePoint" />
            <mxPoint x="470" y="977" as="targetPoint" />
          </mxGeometry>
        </mxCell>
        <mxCell id="lXMdROhuDWXLb9PD8Kn7-14" value="SI" style="text;html=1;resizable=0;autosize=1;align=center;verticalAlign=middle;points=[];fillColor=none;strokeColor=none;rounded=0;" parent="1" vertex="1">
          <mxGeometry x="480" y="950" width="30" height="30" as="geometry" />
        </mxCell>
        <mxCell id="lXMdROhuDWXLb9PD8Kn7-15" value="Revisar errores o problemas" style="rounded=0;whiteSpace=wrap;html=1;" parent="1" vertex="1">
          <mxGeometry x="680" y="945" width="120" height="60" as="geometry" />
        </mxCell>
        <mxCell id="lXMdROhuDWXLb9PD8Kn7-16" value="" style="endArrow=classic;html=1;rounded=0;exitX=1;exitY=0.5;exitDx=0;exitDy=0;entryX=0;entryY=0.5;entryDx=0;entryDy=0;" parent="1" source="lXMdROhuDWXLb9PD8Kn7-12" target="lXMdROhuDWXLb9PD8Kn7-15" edge="1">
          <mxGeometry width="50" height="50" relative="1" as="geometry">
            <mxPoint x="640" y="970" as="sourcePoint" />
            <mxPoint x="680" y="965" as="targetPoint" />
          </mxGeometry>
        </mxCell>
        <mxCell id="lXMdROhuDWXLb9PD8Kn7-17" value="NO" style="text;html=1;resizable=0;autosize=1;align=center;verticalAlign=middle;points=[];fillColor=none;strokeColor=none;rounded=0;" parent="1" vertex="1">
          <mxGeometry x="640" y="950" width="40" height="30" as="geometry" />
        </mxCell>
        <mxCell id="lXMdROhuDWXLb9PD8Kn7-19" value="" style="endArrow=classic;html=1;rounded=0;" parent="1" edge="1">
          <mxGeometry width="50" height="50" relative="1" as="geometry">
            <mxPoint x="740" y="850" as="sourcePoint" />
            <mxPoint x="630" y="850" as="targetPoint" />
          </mxGeometry>
        </mxCell>
        <mxCell id="lXMdROhuDWXLb9PD8Kn7-20" value="" style="endArrow=none;html=1;rounded=0;exitX=0.5;exitY=0;exitDx=0;exitDy=0;" parent="1" source="lXMdROhuDWXLb9PD8Kn7-15" edge="1">
          <mxGeometry width="50" height="50" relative="1" as="geometry">
            <mxPoint x="700" y="910" as="sourcePoint" />
            <mxPoint x="740" y="850" as="targetPoint" />
          </mxGeometry>
        </mxCell>
        <mxCell id="lXMdROhuDWXLb9PD8Kn7-22" value="Publicar, editar y eliminar Noticias" style="rounded=0;whiteSpace=wrap;html=1;" parent="1" vertex="1">
          <mxGeometry x="340" y="945" width="120" height="60" as="geometry" />
        </mxCell>
        <mxCell id="lXMdROhuDWXLb9PD8Kn7-24" value="" style="endArrow=classic;html=1;rounded=0;" parent="1" target="lXMdROhuDWXLb9PD8Kn7-25" edge="1">
          <mxGeometry width="50" height="50" relative="1" as="geometry">
            <mxPoint x="400" y="1010" as="sourcePoint" />
            <mxPoint x="400" y="1050" as="targetPoint" />
          </mxGeometry>
        </mxCell>
        <mxCell id="lXMdROhuDWXLb9PD8Kn7-25" value="Mostrar últimas noticias en la sección noticias.php del DIARIO NEWS" style="rounded=0;whiteSpace=wrap;html=1;" parent="1" vertex="1">
          <mxGeometry x="340" y="1040" width="120" height="60" as="geometry" />
        </mxCell>
        <mxCell id="yo3O8zmIsYUGHrZ7HubU-1" value="Usuario" style="rounded=1;whiteSpace=wrap;html=1;" vertex="1" parent="1">
          <mxGeometry x="20" y="700" width="120" height="60" as="geometry" />
        </mxCell>
        <mxCell id="yo3O8zmIsYUGHrZ7HubU-2" value="" style="endArrow=none;html=1;rounded=0;entryX=0;entryY=0.5;entryDx=0;entryDy=0;exitX=1;exitY=0.5;exitDx=0;exitDy=0;" edge="1" parent="1" source="yo3O8zmIsYUGHrZ7HubU-1" target="lXMdROhuDWXLb9PD8Kn7-1">
          <mxGeometry width="50" height="50" relative="1" as="geometry">
            <mxPoint x="250" y="760" as="sourcePoint" />
            <mxPoint x="300" y="710" as="targetPoint" />
          </mxGeometry>
        </mxCell>
        <mxCell id="yo3O8zmIsYUGHrZ7HubU-3" value="" style="endArrow=classic;html=1;rounded=0;exitX=0.5;exitY=1;exitDx=0;exitDy=0;" edge="1" parent="1" source="yo3O8zmIsYUGHrZ7HubU-1">
          <mxGeometry width="50" height="50" relative="1" as="geometry">
            <mxPoint x="40" y="830" as="sourcePoint" />
            <mxPoint x="80" y="1040" as="targetPoint" />
          </mxGeometry>
        </mxCell>
        <mxCell id="yo3O8zmIsYUGHrZ7HubU-4" value="Leer las últimas noticias" style="rounded=1;whiteSpace=wrap;html=1;" vertex="1" parent="1">
          <mxGeometry x="20" y="1040" width="120" height="60" as="geometry" />
        </mxCell>
      </root>
    </mxGraphModel>
  </diagram>
</mxfile>
